<?xml version="1.0" encoding="UTF-8"?>
<svg width="21px" height="16px" viewBox="0 0 21 16" version="1.1" xmlns="http://www.w3.org/2000/svg" xmlns:xlink="http://www.w3.org/1999/xlink">
    <!-- Generator: Sketch 48.2 (47327) - http://www.bohemiancoding.com/sketch -->
    <title>PageControl/Active</title>
    <desc>Created with Sketch.</desc>
    <defs>
        <rect id="path-1" x="-2.5e-15" y="0" width="21" height="16" rx="1"></rect>
        <mask id="mask-2" maskContentUnits="userSpaceOnUse" maskUnits="objectBoundingBox" x="0" y="0" width="21" height="16" fill="white">
            <use xlink:href="#path-1"></use>
        </mask>
    </defs>
    <g stroke="none" stroke-width="1" fill="none" fill-rule="evenodd">
        <g>
            <use stroke="#6DC0D2" mask="url(#mask-2)" stroke-width="2" stroke-dasharray="2,1" xlink:href="#path-1"></use>
            <g transform="translate(3.000000, 2.000000)">
                <rect stroke="#C7C7C7" x="2.5" y="0.5" width="10" height="11" rx="1"></rect>
                <path d="M4.5,7.5 L10.5,7.5" stroke="#E0E0E0" stroke-linecap="round"></path>
                <path d="M4.5,9.5 L10.5,9.5" stroke="#E0E0E0" stroke-linecap="round"></path>
                <rect fill="#E0E0E0" x="4" y="2" width="7" height="4" rx="1"></rect>
                <g opacity="0.50390625" transform="translate(12.000000, 1.000000)" stroke="#C7C7C7">
                    <g opacity="0.723335598">
                        <g>
                            <path d="M1,0.5 C0.723857625,0.5 0.5,0.723857625 0.5,1 L0.5,9 C0.5,9.27614237 0.723857625,9.5 1,9.5 L2,9.5 C2.27614237,9.5 2.5,9.27614237 2.5,9 L2.5,1 C2.5,0.723857625 2.27614237,0.5 2,0.5 L1,0.5 Z"></path>
                        </g>
                    </g>
                </g>
                <g opacity="0.50390625" transform="translate(1.500000, 6.000000) rotate(-180.000000) translate(-1.500000, -6.000000) translate(0.000000, 1.000000)" stroke="#C7C7C7">
                    <g opacity="0.723335598">
                        <g>
                            <path d="M0.5,0.5 L0.5,9.5 L2,9.5 C2.27614237,9.5 2.5,9.27614237 2.5,9 L2.5,1 C2.5,0.723857625 2.27614237,0.5 2,0.5 L0.5,0.5 Z"></path>
                        </g>
                    </g>
                </g>
            </g>
        </g>
    </g>
</svg>