<?xml version="1.0" encoding="UTF-8"?>
<svg width="21px" height="16px" viewBox="0 0 21 16" version="1.1" xmlns="http://www.w3.org/2000/svg" xmlns:xlink="http://www.w3.org/1999/xlink">
    <!-- Generator: Sketch 48.2 (47327) - http://www.bohemiancoding.com/sketch -->
    <title>Button/Active</title>
    <desc>Created with Sketch.</desc>
    <defs></defs>
    <g stroke="none" stroke-width="1" fill="none" fill-rule="evenodd">
        <g>
            <g transform="translate(7.000000, 10.000000)" stroke="#6DC0D2" stroke-linecap="round">
                <g transform="translate(8.000000, 0.000000)">
                    <path d="M3.32849813e-14,1 C1.10805208e-14,0.333333333 0.666666667,1.8e-15 2,1.8e-15 C2.33333333,1.8e-15 2.66666667,1.8e-15 3,1.80001355e-15 L3,1.8e-15 C4.1045695,1.59709156e-15 5,0.8954305 5,2 L5,3 C5,4.1045695 4.1045695,5 3,5 C2.66666667,5 2.33333333,5 2,5 C0.666666667,5 3.32849813e-14,4.66666667 3.32849813e-14,4"></path>
                </g>
                <g transform="translate(2.000000, 1.000000)">
                    <path d="M8.5,1.5 L0.5,1.5"></path>
                </g>
                <path d="M4.88498131e-15,1 C-1.73194792e-14,0.333333333 0.666666667,1.8e-15 2,1.8e-15 C2.33333333,1.8e-15 2.66666667,1.8e-15 3,1.80001355e-15 L3,1.8e-15 C4.1045695,1.59709156e-15 5,0.8954305 5,2 L5,3 C5,4.1045695 4.1045695,5 3,5 C2.66666667,5 2.33333333,5 2,5 C0.666666667,5 4.88498131e-15,4.66666667 4.88498131e-15,4" transform="translate(2.500000, 2.500000) rotate(-180.000000) translate(-2.500000, -2.500000) "></path>
            </g>
            <g transform="translate(10.000000, 12.000000) rotate(-180.000000) translate(-10.000000, -12.000000) translate(8.000000, 10.000000)"></g>
            <path d="M6.6122098,9.05984483 L5.80810547,6.68408203 L2.31689453,6.68408203 L1.47900391,9.15966797 L0,9.15966797 L3.30712891,0 L4.84326172,0 L7.91288794,8.50186304 C7.40843132,8.52348205 6.9523838,8.73196412 6.6122098,9.05984483 Z M4.04345703,1.5234375 L2.67871094,5.54150391 L5.44628906,5.54150391 L4.08154297,1.5234375 L4.04345703,1.5234375 Z" fill="#C7C7C7"></path>
            <path d="M9.30741436,8.5 L8.29478449,8.5 L10.4038086,2.65869141 L11.4672852,2.65869141 L13.7568359,9 L12.715332,9 L12.1352539,7.28613281 L9.71826172,7.28613281 L9.30741436,8.5 Z M10.9135742,3.71337891 L9.96875,6.49511719 L11.8847656,6.49511719 L10.9399414,3.71337891 L10.9135742,3.71337891 Z" fill="#C7C7C7"></path>
        </g>
    </g>
</svg>